<svg width="300" height="300" viewBox="0 0 300 300" fill="none" xmlns="http://www.w3.org/2000/svg">
  <path d="M150 0C67.157 0 0 67.157 0 150c0 82.843 67.157 150 150 150s150-67.157 150-150C300 67.157 232.843 0 150 0z" fill="white"/>
  <path d="M235.5 108.5c0 30-40.5 67.5-85.5 112.5-45-45-85.5-82.5-85.5-112.5C64.5 82.5 85.5 60 115.5 60c21 0 34.5 10.5 34.5 10.5S163.5 60 184.5 60c30 0 51 22.5 51 48.5z" fill="#3B82F6"/>
  <path d="M150 221L126.5 197.5 150 174l23.5 23.5L150 221z" fill="#EF4444"/>
  <path d="M184.5 60c-21 0-34.5 10.5-34.5 10.5S136.5 60 115.5 60C85.5 60 64.5 82.5 64.5 108.5c0 7.5 2.5 15.7 7.1 24.4C117.9 92.6 150 90 150 90s32.1 2.6 78.4 42.9c4.6-8.7 7.1-16.9 7.1-24.4 0-26-21-48.5-51-48.5z" fill="#60A5FA"/>
  <path d="M150 90s-32.1 2.6-78.4 42.9c19.4 36.6 78.4 88.1 78.4 88.1s59-51.5 78.4-88.1C182.1 92.6 150 90 150 90z" fill="#2563EB"/>
</svg>